<?xml version="1.0" encoding="UTF-8" standalone="no"?>
<svg width="16px" height="16px" viewBox="0 0 16 16" version="1.1" xmlns="http://www.w3.org/2000/svg" xmlns:xlink="http://www.w3.org/1999/xlink">
    <!-- Generator: Sketch 3.7 (28169) - http://www.bohemiancoding.com/sketch -->
    <title>Fill 1</title>
    <desc>Created with Sketch.</desc>
    <defs></defs>
    <g id="Mobile_320" stroke="none" stroke-width="1" fill="none" fill-rule="evenodd">
        <g id="Рекламная-статья" transform="translate(-11.000000, -373.000000)" fill="#000000">
            <g id="Page-1" transform="translate(11.000000, 373.000000)">
                <path d="M12.5322,11.9238 C11.9972,10.7568 11.0342,9.8318 9.8352,9.3578 C10.5392,8.8088 11.0002,7.9618 11.0002,6.9998 C11.0002,5.3438 9.6572,3.9998 8.0002,3.9998 C6.3432,3.9998 5.0002,5.3438 5.0002,6.9998 C5.0002,7.9618 5.4612,8.8088 6.1652,9.3578 C4.9662,9.8318 4.0032,10.7568 3.4682,11.9238 C2.5562,10.8708 2.0002,9.5018 2.0002,7.9998 C2.0002,4.6868 4.6862,1.9998 8.0002,1.9998 C11.3132,1.9998 14.0002,4.6868 14.0002,7.9998 C14.0002,9.5018 13.4442,10.8708 12.5322,11.9238 M8.0002,7.9998 C7.4472,7.9998 7.0002,7.5528 7.0002,6.9998 C7.0002,6.4468 7.4472,5.9998 8.0002,5.9998 C8.5532,5.9998 9.0002,6.4468 9.0002,6.9998 C9.0002,7.5528 8.5532,7.9998 8.0002,7.9998 M5.1042,13.2538 C5.4372,11.9608 6.6012,10.9998 8.0002,10.9998 C9.3982,10.9998 10.5622,11.9608 10.8952,13.2538 C10.0362,13.7288 9.0512,13.9998 8.0002,13.9998 C6.9492,13.9998 5.9642,13.7288 5.1042,13.2538 M8.0002,-0.0002 C3.5822,-0.0002 0.0002,3.5818 0.0002,7.9998 C0.0002,12.4178 3.5822,15.9998 8.0002,15.9998 C12.4182,15.9998 16.0002,12.4178 16.0002,7.9998 C16.0002,3.5818 12.4182,-0.0002 8.0002,-0.0002" id="Fill-1"></path>
            </g>
        </g>
    </g>
</svg>