<?xml version="1.0" encoding="UTF-8" standalone="no"?>
<svg width="16px" height="16px" viewBox="0 0 16 16" version="1.1" xmlns="http://www.w3.org/2000/svg" xmlns:xlink="http://www.w3.org/1999/xlink">
    <!-- Generator: Sketch 3.7 (28169) - http://www.bohemiancoding.com/sketch -->
    <title>Page 1</title>
    <desc>Created with Sketch.</desc>
    <defs></defs>
    <g id="Mobile_320" stroke="none" stroke-width="1" fill="none" fill-rule="evenodd">
        <g id="Рекламная-статья" transform="translate(-11.000000, -404.000000)" fill="#231F1F">
            <path d="M25,409 L13,409 L13,407 L15,407 C15,407.553 15.447,408 16,408 C16.553,408 17,407.553 17,407 L21,407 C21,407.553 21.447,408 22,408 C22.553,408 23,407.553 23,407 L25,407 L25,409 Z M25,418 L13,418 L13,411 L25,411 L25,418 Z M23,405 C23,404.447 22.553,404 22,404 C21.447,404 21,404.447 21,405 L17,405 C17,404.447 16.553,404 16,404 C15.447,404 15,404.447 15,405 L12,405 C11.447,405 11,405.447 11,406 L11,419 C11,419.553 11.447,420 12,420 L26,420 C26.553,420 27,419.553 27,419 L27,406 C27,405.447 26.553,405 26,405 L23,405 Z" id="Page-1"></path>
        </g>
    </g>
</svg>